<svg xmlns="http://www.w3.org/2000/svg" width="1280" height="640" viewBox="0 0 1280 640" role="img" aria-label="open_pg_tde"><rect width="1280" height="640" fill="#16232B"/><rect x="0" y="632" width="1280" height="8" fill="#EAA23C"/><rect x="0" y="632" width="435" height="8" fill="#5C95C0"/><g transform="translate(478.0,120.0) scale(2.7)"><path d="M 27.00 29.00 L 27.00 86.00 A 33.00 11.00 0 0 0 93.00 86.00 L 93.00 29.00 A 33.00 11.00 0 0 1 27.00 29.00 Z" fill="#2F6D9E"/><path d="M 27.00 46.00 A 33.00 11.00 0 0 0 93.00 46.00" fill="none" stroke="#234F73" stroke-width="2.6" stroke-linecap="round"/><ellipse cx="60.0" cy="29.0" rx="33.0" ry="11.0" fill="#5C95C0" stroke="#234F73" stroke-width="1.6"/><path d="M 50.80 62.50 A 9.20 9.20 0 1 1 69.20 62.50 L 67.20 81.50 L 52.80 81.50 L 50.80 62.50 Z" fill="#234F73" transform="translate(0,1.6)" opacity="0.5"/><path d="M 50.80 62.50 A 9.20 9.20 0 1 1 69.20 62.50 L 67.20 81.50 L 52.80 81.50 L 50.80 62.50 Z" fill="#EAA23C"/></g><g transform="translate(339.436,564.000) scale(0.092000)" fill="#FFFFFF"><g transform="translate(0.000,0) scale(1,-1)"><path d="M300 -12Q241 -12 194.5 7.0Q148 26 115.5 61.0Q83 96 65.5 146.0Q48 196 48 258Q48 320 65.5 370.0Q83 420 115.5 455.0Q148 490 194.5 509.0Q241 528 300 528Q358 528 405.0 509.0Q452 490 484.5 455.0Q517 420 534.5 370.0Q552 320 552 258Q552 196 534.5 146.0Q517 96 484.5 61.0Q452 26 405.0 7.0Q358 -12 300 -12ZM300 86Q355 86 387.0 119.5Q419 153 419 218V298Q419 363 387.0 396.5Q355 430 300 430Q245 430 213.0 396.5Q181 363 181 298V218Q181 153 213.0 119.5Q245 86 300 86Z"/></g><g transform="translate(594.000,0) scale(1,-1)"><path d="M69 516H197V425H204Q225 472 261.5 500.0Q298 528 358 528Q402 528 438.5 511.5Q475 495 501.0 461.5Q527 428 541.0 377.0Q555 326 555 258Q555 190 541.0 139.0Q527 88 501.0 54.5Q475 21 438.5 4.5Q402 -12 358 -12Q298 -12 261.5 16.0Q225 44 204 91H197V-200H69ZM304 90Q360 90 390.5 124.0Q421 158 421 217V299Q421 358 390.5 392.0Q360 426 304 426Q260 426 228.5 404.5Q197 383 197 339V177Q197 133 228.5 111.5Q260 90 304 90Z"/></g><g transform="translate(1188.000,0) scale(1,-1)"><path d="M312 -12Q250 -12 202.0 7.0Q154 26 121.5 61.0Q89 96 72.0 145.5Q55 195 55 257Q55 320 72.5 370.0Q90 420 122.0 455.0Q154 490 199.5 509.0Q245 528 302 528Q358 528 403.0 509.5Q448 491 479.5 457.0Q511 423 528.0 375.0Q545 327 545 269V227H183V214Q183 158 218.0 123.5Q253 89 316 89Q364 89 398.5 108.5Q433 128 456 160L529 87Q501 46 447.5 17.0Q394 -12 312 -12ZM303 434Q249 434 216.0 400.0Q183 366 183 310V303H417V312Q417 368 386.5 401.0Q356 434 303 434Z"/></g><g transform="translate(1782.000,0) scale(1,-1)"><path d="M75 0V516H203V425H208Q225 467 260.5 497.5Q296 528 359 528Q435 528 482.5 477.5Q530 427 530 333V0H402V315Q402 427 305 427Q285 427 267.0 422.0Q249 417 234.5 406.5Q220 396 211.5 381.0Q203 366 203 345V0Z"/></g><g transform="translate(2376.000,0) scale(1,-1)"><path d="M60 -185V-78H540V-185Z"/></g><g transform="translate(2970.000,0) scale(1,-1)"><path d="M69 516H197V425H204Q225 472 261.5 500.0Q298 528 358 528Q402 528 438.5 511.5Q475 495 501.0 461.5Q527 428 541.0 377.0Q555 326 555 258Q555 190 541.0 139.0Q527 88 501.0 54.5Q475 21 438.5 4.5Q402 -12 358 -12Q298 -12 261.5 16.0Q225 44 204 91H197V-200H69ZM304 90Q360 90 390.5 124.0Q421 158 421 217V299Q421 358 390.5 392.0Q360 426 304 426Q260 426 228.5 404.5Q197 383 197 339V177Q197 133 228.5 111.5Q260 90 304 90Z"/></g><g transform="translate(3564.000,0) scale(1,-1)"><path d="M576 -54Q576 -135 508.5 -173.5Q441 -212 298 -212Q228 -212 181.0 -203.5Q134 -195 105.5 -179.0Q77 -163 65.0 -140.5Q53 -118 53 -90Q53 -47 78.0 -24.0Q103 -1 148 10V18Q118 28 100.5 46.0Q83 64 83 96Q83 134 108.5 153.0Q134 172 176 182V187Q130 209 104.0 249.0Q78 289 78 346Q78 389 93.5 422.5Q109 456 137.5 479.5Q166 503 206.0 515.5Q246 528 295 528Q347 528 389 514V536Q389 566 408.5 586.0Q428 606 463 606H556V510H434V493Q472 470 492.5 433.5Q513 397 513 346Q513 303 497.5 269.0Q482 235 453.5 212.0Q425 189 384.5 176.5Q344 164 295 164Q275 164 256.5 165.5Q238 167 221 172Q207 167 194.0 156.0Q181 145 181 127Q181 103 204.0 97.5Q227 92 259 92H376Q430 92 468.0 81.5Q506 71 530.0 51.5Q554 32 565.0 5.0Q576 -22 576 -54ZM456 -63Q456 -40 437.5 -26.5Q419 -13 369 -13H191Q161 -30 161 -63Q161 -90 183.5 -108.0Q206 -126 260 -126H343Q456 -126 456 -63ZM295 248Q344 248 367.0 271.5Q390 295 390 333V359Q390 397 367.0 420.5Q344 444 295 444Q247 444 224.0 420.5Q201 397 201 359V333Q201 295 224.0 271.5Q247 248 295 248Z"/></g><g transform="translate(4158.000,0) scale(1,-1)"><path d="M60 -185V-78H540V-185Z"/></g><g transform="translate(4752.000,0) scale(1,-1)"><path d="M335 0Q261 0 226.0 39.0Q191 78 191 140V415H41V516H143Q174 516 187.0 528.5Q200 541 200 573V698H319V516H529V415H319V101H529V0Z"/></g><g transform="translate(5346.000,0) scale(1,-1)"><path d="M403 91H396Q375 44 338.5 16.0Q302 -12 242 -12Q198 -12 161.5 4.5Q125 21 99.0 54.5Q73 88 59.0 139.0Q45 190 45 258Q45 394 99.0 461.0Q153 528 242 528Q302 528 338.5 500.0Q375 472 396 425H403V740H531V0H403ZM296 90Q318 90 337.5 95.5Q357 101 371.5 111.5Q386 122 394.5 138.5Q403 155 403 177V339Q403 361 394.5 377.5Q386 394 371.5 404.5Q357 415 337.5 420.5Q318 426 296 426Q240 426 209.5 392.0Q179 358 179 299V217Q179 158 209.5 124.0Q240 90 296 90Z"/></g><g transform="translate(5940.000,0) scale(1,-1)"><path d="M312 -12Q250 -12 202.0 7.0Q154 26 121.5 61.0Q89 96 72.0 145.5Q55 195 55 257Q55 320 72.5 370.0Q90 420 122.0 455.0Q154 490 199.5 509.0Q245 528 302 528Q358 528 403.0 509.5Q448 491 479.5 457.0Q511 423 528.0 375.0Q545 327 545 269V227H183V214Q183 158 218.0 123.5Q253 89 316 89Q364 89 398.5 108.5Q433 128 456 160L529 87Q501 46 447.5 17.0Q394 -12 312 -12ZM303 434Q249 434 216.0 400.0Q183 366 183 310V303H417V312Q417 368 386.5 401.0Q356 434 303 434Z"/></g></g><rect x="339.4" y="578.0" width="601.1" height="6" rx="3" fill="#EAA23C"/><g transform="translate(332.650,630.000) scale(0.030000)" fill="#C4D0D8"><g transform="translate(0.000,0) scale(1,-1)"><path d="M345 598V0H232V598H24V698H553V598Z"/></g><g transform="translate(582.000,0) scale(1,-1)"><path d="M78 0V520H187V420H192Q203 460 238.0 490.0Q273 520 335 520H364V415H321Q256 415 221.5 394.0Q187 373 187 332V0Z"/></g><g transform="translate(970.000,0) scale(1,-1)"><path d="M459 0Q416 0 393.0 24.5Q370 49 365 87H360Q345 38 305.0 13.0Q265 -12 208 -12Q127 -12 83.5 30.0Q40 72 40 143Q40 221 96.5 260.0Q153 299 262 299H356V343Q356 391 330.0 417.0Q304 443 249 443Q203 443 174.0 423.0Q145 403 125 372L60 431Q86 475 133.0 503.5Q180 532 256 532Q357 532 411.0 485.0Q465 438 465 350V89H520V0ZM239 71Q290 71 323.0 93.5Q356 116 356 154V229H264Q151 229 151 159V141Q151 106 174.5 88.5Q198 71 239 71Z"/></g><g transform="translate(1524.000,0) scale(1,-1)"><path d="M78 0V520H187V434H192Q209 476 243.5 504.0Q278 532 338 532Q418 532 462.5 479.5Q507 427 507 330V0H398V316Q398 438 300 438Q279 438 258.5 432.5Q238 427 222.0 416.0Q206 405 196.5 388.0Q187 371 187 348V0Z"/></g><g transform="translate(2109.000,0) scale(1,-1)"><path d="M243 -12Q169 -12 119.0 14.0Q69 40 32 86L102 150Q131 115 166.5 95.5Q202 76 249 76Q297 76 320.5 94.5Q344 113 344 146Q344 171 327.5 188.5Q311 206 270 211L222 217Q142 227 96.5 263.5Q51 300 51 372Q51 410 65.0 439.5Q79 469 104.5 489.5Q130 510 165.5 521.0Q201 532 244 532Q314 532 358.5 510.0Q403 488 438 449L371 385Q351 409 318.5 426.5Q286 444 244 444Q199 444 177.5 426.0Q156 408 156 379Q156 349 175.0 334.0Q194 319 236 312L284 306Q370 293 409.5 255.5Q449 218 449 155Q449 117 434.5 86.5Q420 56 393.0 34.0Q366 12 328.0 0.0Q290 -12 243 -12Z"/></g><g transform="translate(2608.000,0) scale(1,-1)"><path d="M78 520H187V434H192Q209 481 247.5 506.5Q286 532 338 532Q437 532 491.0 460.5Q545 389 545 260Q545 131 491.0 59.5Q437 -12 338 -12Q286 -12 247.5 14.0Q209 40 192 86H187V-200H78ZM305 82Q362 82 396.0 118.5Q430 155 430 215V305Q430 365 396.0 401.5Q362 438 305 438Q255 438 221.0 413.5Q187 389 187 349V171Q187 131 221.0 106.5Q255 82 305 82Z"/></g><g transform="translate(3205.000,0) scale(1,-1)"><path d="M459 0Q416 0 393.0 24.5Q370 49 365 87H360Q345 38 305.0 13.0Q265 -12 208 -12Q127 -12 83.5 30.0Q40 72 40 143Q40 221 96.5 260.0Q153 299 262 299H356V343Q356 391 330.0 417.0Q304 443 249 443Q203 443 174.0 423.0Q145 403 125 372L60 431Q86 475 133.0 503.5Q180 532 256 532Q357 532 411.0 485.0Q465 438 465 350V89H520V0ZM239 71Q290 71 323.0 93.5Q356 116 356 154V229H264Q151 229 151 159V141Q151 106 174.5 88.5Q198 71 239 71Z"/></g><g transform="translate(3759.000,0) scale(1,-1)"><path d="M78 0V520H187V420H192Q203 460 238.0 490.0Q273 520 335 520H364V415H321Q256 415 221.5 394.0Q187 373 187 332V0Z"/></g><g transform="translate(4147.000,0) scale(1,-1)"><path d="M282 -12Q226 -12 182.0 7.0Q138 26 107.0 61.5Q76 97 59.5 147.5Q43 198 43 260Q43 322 59.5 372.5Q76 423 107.0 458.5Q138 494 182.0 513.0Q226 532 282 532Q339 532 382.5 512.0Q426 492 455.0 456.5Q484 421 498.5 374.0Q513 327 513 273V232H156V215Q156 155 191.5 116.5Q227 78 293 78Q341 78 374.0 99.0Q407 120 430 156L494 93Q465 45 410.0 16.5Q355 -12 282 -12ZM282 447Q254 447 230.5 437.0Q207 427 190.5 409.0Q174 391 165.0 366.0Q156 341 156 311V304H398V314Q398 374 367.0 410.5Q336 447 282 447Z"/></g><g transform="translate(4708.000,0) scale(1,-1)"><path d="M78 0V520H187V434H192Q209 476 243.5 504.0Q278 532 338 532Q418 532 462.5 479.5Q507 427 507 330V0H398V316Q398 438 300 438Q279 438 258.5 432.5Q238 427 222.0 416.0Q206 405 196.5 388.0Q187 371 187 348V0Z"/></g><g transform="translate(5293.000,0) scale(1,-1)"><path d="M222 0Q165 0 136.0 29.5Q107 59 107 113V431H26V520H70Q97 520 107.5 532.0Q118 544 118 571V662H216V520H325V431H216V89H317V0Z"/></g><g transform="translate(5904.000,0) scale(1,-1)"><path d="M86 698H333Q400 698 454.5 676.0Q509 654 547.5 610.5Q586 567 607.0 501.5Q628 436 628 349Q628 262 607.0 196.5Q586 131 547.5 87.5Q509 44 454.5 22.0Q400 0 333 0H86ZM333 100Q411 100 459.0 149.0Q507 198 507 293V405Q507 500 459.0 549.0Q411 598 333 598H199V100Z"/></g><g transform="translate(6592.000,0) scale(1,-1)"><path d="M459 0Q416 0 393.0 24.5Q370 49 365 87H360Q345 38 305.0 13.0Q265 -12 208 -12Q127 -12 83.5 30.0Q40 72 40 143Q40 221 96.5 260.0Q153 299 262 299H356V343Q356 391 330.0 417.0Q304 443 249 443Q203 443 174.0 423.0Q145 403 125 372L60 431Q86 475 133.0 503.5Q180 532 256 532Q357 532 411.0 485.0Q465 438 465 350V89H520V0ZM239 71Q290 71 323.0 93.5Q356 116 356 154V229H264Q151 229 151 159V141Q151 106 174.5 88.5Q198 71 239 71Z"/></g><g transform="translate(7146.000,0) scale(1,-1)"><path d="M222 0Q165 0 136.0 29.5Q107 59 107 113V431H26V520H70Q97 520 107.5 532.0Q118 544 118 571V662H216V520H325V431H216V89H317V0Z"/></g><g transform="translate(7516.000,0) scale(1,-1)"><path d="M459 0Q416 0 393.0 24.5Q370 49 365 87H360Q345 38 305.0 13.0Q265 -12 208 -12Q127 -12 83.5 30.0Q40 72 40 143Q40 221 96.5 260.0Q153 299 262 299H356V343Q356 391 330.0 417.0Q304 443 249 443Q203 443 174.0 423.0Q145 403 125 372L60 431Q86 475 133.0 503.5Q180 532 256 532Q357 532 411.0 485.0Q465 438 465 350V89H520V0ZM239 71Q290 71 323.0 93.5Q356 116 356 154V229H264Q151 229 151 159V141Q151 106 174.5 88.5Q198 71 239 71Z"/></g><g transform="translate(8311.000,0) scale(1,-1)"><path d="M86 0V698H533V598H199V404H502V304H199V100H533V0Z"/></g><g transform="translate(8909.000,0) scale(1,-1)"><path d="M78 0V520H187V434H192Q209 476 243.5 504.0Q278 532 338 532Q418 532 462.5 479.5Q507 427 507 330V0H398V316Q398 438 300 438Q279 438 258.5 432.5Q238 427 222.0 416.0Q206 405 196.5 388.0Q187 371 187 348V0Z"/></g><g transform="translate(9494.000,0) scale(1,-1)"><path d="M279 -12Q223 -12 179.0 7.0Q135 26 105.0 61.5Q75 97 59.0 147.5Q43 198 43 260Q43 322 59.0 372.5Q75 423 105.0 458.5Q135 494 179.0 513.0Q223 532 279 532Q357 532 407.0 497.0Q457 462 480 404L390 362Q379 398 351.5 419.5Q324 441 279 441Q219 441 188.5 403.5Q158 366 158 306V213Q158 153 188.5 115.5Q219 78 279 78Q327 78 355.5 101.5Q384 125 401 164L484 120Q458 56 406.0 22.0Q354 -12 279 -12Z"/></g><g transform="translate(10009.000,0) scale(1,-1)"><path d="M78 0V520H187V420H192Q203 460 238.0 490.0Q273 520 335 520H364V415H321Q256 415 221.5 394.0Q187 373 187 332V0Z"/></g><g transform="translate(10397.000,0) scale(1,-1)"><path d="M397 520H502L283 -103Q274 -129 262.5 -147.5Q251 -166 235.5 -177.5Q220 -189 198.0 -194.5Q176 -200 146 -200H83V-111H171L201 -23L12 520H121L225 214L255 101H260L293 214Z"/></g><g transform="translate(10916.000,0) scale(1,-1)"><path d="M78 520H187V434H192Q209 481 247.5 506.5Q286 532 338 532Q437 532 491.0 460.5Q545 389 545 260Q545 131 491.0 59.5Q437 -12 338 -12Q286 -12 247.5 14.0Q209 40 192 86H187V-200H78ZM305 82Q362 82 396.0 118.5Q430 155 430 215V305Q430 365 396.0 401.5Q362 438 305 438Q255 438 221.0 413.5Q187 389 187 349V171Q187 131 221.0 106.5Q255 82 305 82Z"/></g><g transform="translate(11513.000,0) scale(1,-1)"><path d="M222 0Q165 0 136.0 29.5Q107 59 107 113V431H26V520H70Q97 520 107.5 532.0Q118 544 118 571V662H216V520H325V431H216V89H317V0Z"/></g><g transform="translate(11883.000,0) scale(1,-1)"><path d="M133 613Q99 613 83.5 629.0Q68 645 68 670V687Q68 712 83.5 728.0Q99 744 133 744Q167 744 182.0 728.0Q197 712 197 687V670Q197 645 182.0 629.0Q167 613 133 613ZM78 520H187V0H78Z"/></g><g transform="translate(12153.000,0) scale(1,-1)"><path d="M282 -12Q228 -12 183.5 7.0Q139 26 108.0 61.5Q77 97 60.0 147.5Q43 198 43 260Q43 322 60.0 372.5Q77 423 108.0 458.5Q139 494 183.5 513.0Q228 532 282 532Q336 532 380.5 513.0Q425 494 456.0 458.5Q487 423 504.0 372.5Q521 322 521 260Q521 198 504.0 147.5Q487 97 456.0 61.5Q425 26 380.5 7.0Q336 -12 282 -12ZM282 78Q338 78 372.0 112.5Q406 147 406 216V304Q406 373 372.0 407.5Q338 442 282 442Q226 442 192.0 407.5Q158 373 158 304V216Q158 147 192.0 112.5Q226 78 282 78Z"/></g><g transform="translate(12722.000,0) scale(1,-1)"><path d="M78 0V520H187V434H192Q209 476 243.5 504.0Q278 532 338 532Q418 532 462.5 479.5Q507 427 507 330V0H398V316Q398 438 300 438Q279 438 258.5 432.5Q238 427 222.0 416.0Q206 405 196.5 388.0Q187 371 187 348V0Z"/></g><g transform="translate(13548.000,0) scale(1,-1)"><path d="M105 431H26V520H105V606Q105 669 138.0 704.5Q171 740 237 740H323V651H214V520H323V431H214V0H105Z"/></g><g transform="translate(13893.000,0) scale(1,-1)"><path d="M282 -12Q228 -12 183.5 7.0Q139 26 108.0 61.5Q77 97 60.0 147.5Q43 198 43 260Q43 322 60.0 372.5Q77 423 108.0 458.5Q139 494 183.5 513.0Q228 532 282 532Q336 532 380.5 513.0Q425 494 456.0 458.5Q487 423 504.0 372.5Q521 322 521 260Q521 198 504.0 147.5Q487 97 456.0 61.5Q425 26 380.5 7.0Q336 -12 282 -12ZM282 78Q338 78 372.0 112.5Q406 147 406 216V304Q406 373 372.0 407.5Q338 442 282 442Q226 442 192.0 407.5Q158 373 158 304V216Q158 147 192.0 112.5Q226 78 282 78Z"/></g><g transform="translate(14462.000,0) scale(1,-1)"><path d="M78 0V520H187V420H192Q203 460 238.0 490.0Q273 520 335 520H364V415H321Q256 415 221.5 394.0Q187 373 187 332V0Z"/></g><g transform="translate(15091.000,0) scale(1,-1)"><path d="M86 0V698H386Q483 698 536.0 641.0Q589 584 589 488Q589 392 536.0 335.0Q483 278 386 278H199V0ZM199 377H379Q422 377 446.0 399.5Q470 422 470 464V512Q470 554 446.0 576.5Q422 599 379 599H199Z"/></g><g transform="translate(15723.000,0) scale(1,-1)"><path d="M282 -12Q228 -12 183.5 7.0Q139 26 108.0 61.5Q77 97 60.0 147.5Q43 198 43 260Q43 322 60.0 372.5Q77 423 108.0 458.5Q139 494 183.5 513.0Q228 532 282 532Q336 532 380.5 513.0Q425 494 456.0 458.5Q487 423 504.0 372.5Q521 322 521 260Q521 198 504.0 147.5Q487 97 456.0 61.5Q425 26 380.5 7.0Q336 -12 282 -12ZM282 78Q338 78 372.0 112.5Q406 147 406 216V304Q406 373 372.0 407.5Q338 442 282 442Q226 442 192.0 407.5Q158 373 158 304V216Q158 147 192.0 112.5Q226 78 282 78Z"/></g><g transform="translate(16292.000,0) scale(1,-1)"><path d="M243 -12Q169 -12 119.0 14.0Q69 40 32 86L102 150Q131 115 166.5 95.5Q202 76 249 76Q297 76 320.5 94.5Q344 113 344 146Q344 171 327.5 188.5Q311 206 270 211L222 217Q142 227 96.5 263.5Q51 300 51 372Q51 410 65.0 439.5Q79 469 104.5 489.5Q130 510 165.5 521.0Q201 532 244 532Q314 532 358.5 510.0Q403 488 438 449L371 385Q351 409 318.5 426.5Q286 444 244 444Q199 444 177.5 426.0Q156 408 156 379Q156 349 175.0 334.0Q194 319 236 312L284 306Q370 293 409.5 255.5Q449 218 449 155Q449 117 434.5 86.5Q420 56 393.0 34.0Q366 12 328.0 0.0Q290 -12 243 -12Z"/></g><g transform="translate(16791.000,0) scale(1,-1)"><path d="M222 0Q165 0 136.0 29.5Q107 59 107 113V431H26V520H70Q97 520 107.5 532.0Q118 544 118 571V662H216V520H325V431H216V89H317V0Z"/></g><g transform="translate(17161.000,0) scale(1,-1)"><path d="M534 -49Q534 -130 472.0 -171.0Q410 -212 270 -212Q206 -212 161.5 -203.5Q117 -195 88.5 -179.0Q60 -163 47.0 -140.0Q34 -117 34 -87Q34 -44 57.5 -20.0Q81 4 123 13V24Q64 43 64 104Q64 144 91.0 165.5Q118 187 156 196V200Q110 222 85.5 261.5Q61 301 61 354Q61 434 114.5 483.0Q168 532 268 532Q323 532 362 516V530Q362 565 378.5 584.5Q395 604 430 604H510V516H404V495Q439 472 458.0 435.5Q477 399 477 354Q477 275 423.0 226.5Q369 178 269 178Q231 178 201 186Q181 179 166.0 166.5Q151 154 151 134Q151 113 170.0 104.0Q189 95 224 95H352Q448 95 491.0 56.5Q534 18 534 -49ZM432 -61Q432 -34 411.5 -18.0Q391 -2 337 -2H161Q125 -23 125 -62Q125 -94 150.5 -113.5Q176 -133 237 -133H305Q432 -133 432 -61ZM269 257Q317 257 343.5 278.5Q370 300 370 345V365Q370 410 343.5 431.5Q317 453 269 453Q221 453 194.5 431.5Q168 410 168 365V345Q168 300 194.5 278.5Q221 257 269 257Z"/></g><g transform="translate(17703.000,0) scale(1,-1)"><path d="M78 0V520H187V420H192Q203 460 238.0 490.0Q273 520 335 520H364V415H321Q256 415 221.5 394.0Q187 373 187 332V0Z"/></g><g transform="translate(18091.000,0) scale(1,-1)"><path d="M282 -12Q226 -12 182.0 7.0Q138 26 107.0 61.5Q76 97 59.5 147.5Q43 198 43 260Q43 322 59.5 372.5Q76 423 107.0 458.5Q138 494 182.0 513.0Q226 532 282 532Q339 532 382.5 512.0Q426 492 455.0 456.5Q484 421 498.5 374.0Q513 327 513 273V232H156V215Q156 155 191.5 116.5Q227 78 293 78Q341 78 374.0 99.0Q407 120 430 156L494 93Q465 45 410.0 16.5Q355 -12 282 -12ZM282 447Q254 447 230.5 437.0Q207 427 190.5 409.0Q174 391 165.0 366.0Q156 341 156 311V304H398V314Q398 374 367.0 410.5Q336 447 282 447Z"/></g><g transform="translate(18652.000,0) scale(1,-1)"><path d="M295 -12Q207 -12 145.5 20.0Q84 52 40 106L118 179Q155 134 199.5 111.0Q244 88 301 88Q368 88 402.0 118.0Q436 148 436 199Q436 240 412.0 264.0Q388 288 327 300L265 311Q163 330 112.0 378.0Q61 426 61 510Q61 556 78.5 593.5Q96 631 127.5 656.5Q159 682 204.0 696.0Q249 710 305 710Q384 710 442.0 682.5Q500 655 541 603L462 533Q435 568 396.0 589.0Q357 610 299 610Q239 610 206.0 586.0Q173 562 173 516Q173 472 200.0 450.5Q227 429 284 418L346 405Q451 385 499.5 337.0Q548 289 548 205Q548 156 531.0 116.0Q514 76 481.5 47.5Q449 19 402.0 3.5Q355 -12 295 -12Z"/></g><g transform="translate(19255.000,0) scale(1,-1)"><path d="M523 -173H424Q365 -173 337.5 -143.0Q310 -113 310 -62V-9Q251 -2 204.0 25.0Q157 52 124.0 97.0Q91 142 73.0 205.5Q55 269 55 349Q55 437 76.5 504.5Q98 572 137.5 617.5Q177 663 232.5 686.5Q288 710 356 710Q424 710 479.5 686.5Q535 663 574.5 617.5Q614 572 635.5 504.5Q657 437 657 349Q657 193 592.0 102.5Q527 12 416 -7V-79H523ZM356 89Q396 89 429.5 103.0Q463 117 486.5 143.5Q510 170 523.0 208.0Q536 246 536 294V404Q536 452 523.0 490.0Q510 528 486.5 554.5Q463 581 429.5 595.0Q396 609 356 609Q315 609 282.0 595.0Q249 581 225.5 554.5Q202 528 189.0 490.0Q176 452 176 404V294Q176 246 189.0 208.0Q202 170 225.5 143.5Q249 117 282.0 103.0Q315 89 356 89Z"/></g><g transform="translate(19972.000,0) scale(1,-1)"><path d="M86 0V698H199V100H483V0Z"/></g></g><g transform="translate(462.450,670.000) scale(0.020000)" fill="#7F8F99"><g transform="translate(0.000,0) scale(1,-1)"><path d="M78 0V520H187V434H192Q200 454 211.5 472.0Q223 490 239.5 503.5Q256 517 278.5 524.5Q301 532 331 532Q384 532 425.0 506.0Q466 480 485 426H488Q502 470 542.0 501.0Q582 532 645 532Q723 532 766.0 479.5Q809 427 809 330V0H700V317Q700 377 677.0 407.5Q654 438 604 438Q583 438 564.0 432.5Q545 427 530.5 416.0Q516 405 507.0 388.0Q498 371 498 349V0H389V317Q389 438 294 438Q274 438 254.5 432.5Q235 427 220.0 416.0Q205 405 196.0 388.0Q187 371 187 349V0Z"/></g><g transform="translate(892.000,0) scale(1,-1)"><path d="M459 0Q416 0 393.0 24.5Q370 49 365 87H360Q345 38 305.0 13.0Q265 -12 208 -12Q127 -12 83.5 30.0Q40 72 40 143Q40 221 96.5 260.0Q153 299 262 299H356V343Q356 391 330.0 417.0Q304 443 249 443Q203 443 174.0 423.0Q145 403 125 372L60 431Q86 475 133.0 503.5Q180 532 256 532Q357 532 411.0 485.0Q465 438 465 350V89H520V0ZM239 71Q290 71 323.0 93.5Q356 116 356 154V229H264Q151 229 151 159V141Q151 106 174.5 88.5Q198 71 239 71Z"/></g><g transform="translate(1451.000,0) scale(1,-1)"><path d="M133 613Q99 613 83.5 629.0Q68 645 68 670V687Q68 712 83.5 728.0Q99 744 133 744Q167 744 182.0 728.0Q197 712 197 687V670Q197 645 182.0 629.0Q167 613 133 613ZM78 520H187V0H78Z"/></g><g transform="translate(1726.000,0) scale(1,-1)"><path d="M78 0V520H187V434H192Q209 476 243.5 504.0Q278 532 338 532Q418 532 462.5 479.5Q507 427 507 330V0H398V316Q398 438 300 438Q279 438 258.5 432.5Q238 427 222.0 416.0Q206 405 196.5 388.0Q187 371 187 348V0Z"/></g><g transform="translate(2316.000,0) scale(1,-1)"><path d="M222 0Q165 0 136.0 29.5Q107 59 107 113V431H26V520H70Q97 520 107.5 532.0Q118 544 118 571V662H216V520H325V431H216V89H317V0Z"/></g><g transform="translate(2691.000,0) scale(1,-1)"><path d="M459 0Q416 0 393.0 24.5Q370 49 365 87H360Q345 38 305.0 13.0Q265 -12 208 -12Q127 -12 83.5 30.0Q40 72 40 143Q40 221 96.5 260.0Q153 299 262 299H356V343Q356 391 330.0 417.0Q304 443 249 443Q203 443 174.0 423.0Q145 403 125 372L60 431Q86 475 133.0 503.5Q180 532 256 532Q357 532 411.0 485.0Q465 438 465 350V89H520V0ZM239 71Q290 71 323.0 93.5Q356 116 356 154V229H264Q151 229 151 159V141Q151 106 174.5 88.5Q198 71 239 71Z"/></g><g transform="translate(3250.000,0) scale(1,-1)"><path d="M133 613Q99 613 83.5 629.0Q68 645 68 670V687Q68 712 83.5 728.0Q99 744 133 744Q167 744 182.0 728.0Q197 712 197 687V670Q197 645 182.0 629.0Q167 613 133 613ZM78 520H187V0H78Z"/></g><g transform="translate(3525.000,0) scale(1,-1)"><path d="M78 0V520H187V434H192Q209 476 243.5 504.0Q278 532 338 532Q418 532 462.5 479.5Q507 427 507 330V0H398V316Q398 438 300 438Q279 438 258.5 432.5Q238 427 222.0 416.0Q206 405 196.5 388.0Q187 371 187 348V0Z"/></g><g transform="translate(4115.000,0) scale(1,-1)"><path d="M282 -12Q226 -12 182.0 7.0Q138 26 107.0 61.5Q76 97 59.5 147.5Q43 198 43 260Q43 322 59.5 372.5Q76 423 107.0 458.5Q138 494 182.0 513.0Q226 532 282 532Q339 532 382.5 512.0Q426 492 455.0 456.5Q484 421 498.5 374.0Q513 327 513 273V232H156V215Q156 155 191.5 116.5Q227 78 293 78Q341 78 374.0 99.0Q407 120 430 156L494 93Q465 45 410.0 16.5Q355 -12 282 -12ZM282 447Q254 447 230.5 437.0Q207 427 190.5 409.0Q174 391 165.0 366.0Q156 341 156 311V304H398V314Q398 374 367.0 410.5Q336 447 282 447Z"/></g><g transform="translate(4681.000,0) scale(1,-1)"><path d="M405 86H400Q383 40 344.5 14.0Q306 -12 254 -12Q155 -12 101.0 59.5Q47 131 47 260Q47 389 101.0 460.5Q155 532 254 532Q306 532 344.5 506.5Q383 481 400 434H405V740H514V0H405ZM287 82Q337 82 371.0 106.5Q405 131 405 171V349Q405 389 371.0 413.5Q337 438 287 438Q230 438 196.0 401.5Q162 365 162 305V215Q162 155 196.0 118.5Q230 82 287 82Z"/></g><g transform="translate(5529.000,0) scale(1,-1)"><path d="M78 740H187V434H192Q209 481 247.5 506.5Q286 532 338 532Q437 532 491.0 460.5Q545 389 545 260Q545 131 491.0 59.5Q437 -12 338 -12Q286 -12 247.5 14.0Q209 40 192 86H187V0H78ZM305 82Q362 82 396.0 118.5Q430 155 430 215V305Q430 365 396.0 401.5Q362 438 305 438Q255 438 221.0 413.5Q187 389 187 349V171Q187 131 221.0 106.5Q255 82 305 82Z"/></g><g transform="translate(6131.000,0) scale(1,-1)"><path d="M397 520H502L283 -103Q274 -129 262.5 -147.5Q251 -166 235.5 -177.5Q220 -189 198.0 -194.5Q176 -200 146 -200H83V-111H171L201 -23L12 520H121L225 214L255 101H260L293 214Z"/></g><g transform="translate(6901.000,0) scale(1,-1)"><path d="M348 -12Q211 -12 133.0 80.5Q55 173 55 349Q55 437 75.0 504.0Q95 571 133.0 617.0Q171 663 225.5 686.5Q280 710 348 710Q439 710 500.5 670.0Q562 630 597 552L502 500Q484 550 446.5 579.5Q409 609 348 609Q267 609 221.0 554.0Q175 499 175 402V296Q175 199 221.0 144.0Q267 89 348 89Q411 89 450.5 121.5Q490 154 509 205L600 150Q565 74 502.0 31.0Q439 -12 348 -12Z"/></g><g transform="translate(7545.000,0) scale(1,-1)"><path d="M282 -12Q228 -12 183.5 7.0Q139 26 108.0 61.5Q77 97 60.0 147.5Q43 198 43 260Q43 322 60.0 372.5Q77 423 108.0 458.5Q139 494 183.5 513.0Q228 532 282 532Q336 532 380.5 513.0Q425 494 456.0 458.5Q487 423 504.0 372.5Q521 322 521 260Q521 198 504.0 147.5Q487 97 456.0 61.5Q425 26 380.5 7.0Q336 -12 282 -12ZM282 78Q338 78 372.0 112.5Q406 147 406 216V304Q406 373 372.0 407.5Q338 442 282 442Q226 442 192.0 407.5Q158 373 158 304V216Q158 147 192.0 112.5Q226 78 282 78Z"/></g><g transform="translate(8119.000,0) scale(1,-1)"><path d="M78 0V520H187V434H192Q200 454 211.5 472.0Q223 490 239.5 503.5Q256 517 278.5 524.5Q301 532 331 532Q384 532 425.0 506.0Q466 480 485 426H488Q502 470 542.0 501.0Q582 532 645 532Q723 532 766.0 479.5Q809 427 809 330V0H700V317Q700 377 677.0 407.5Q654 438 604 438Q583 438 564.0 432.5Q545 427 530.5 416.0Q516 405 507.0 388.0Q498 371 498 349V0H389V317Q389 438 294 438Q274 438 254.5 432.5Q235 427 220.0 416.0Q205 405 196.0 388.0Q187 371 187 349V0Z"/></g><g transform="translate(9011.000,0) scale(1,-1)"><path d="M78 0V520H187V434H192Q200 454 211.5 472.0Q223 490 239.5 503.5Q256 517 278.5 524.5Q301 532 331 532Q384 532 425.0 506.0Q466 480 485 426H488Q502 470 542.0 501.0Q582 532 645 532Q723 532 766.0 479.5Q809 427 809 330V0H700V317Q700 377 677.0 407.5Q654 438 604 438Q583 438 564.0 432.5Q545 427 530.5 416.0Q516 405 507.0 388.0Q498 371 498 349V0H389V317Q389 438 294 438Q274 438 254.5 432.5Q235 427 220.0 416.0Q205 405 196.0 388.0Q187 371 187 349V0Z"/></g><g transform="translate(9903.000,0) scale(1,-1)"><path d="M459 0Q416 0 393.0 24.5Q370 49 365 87H360Q345 38 305.0 13.0Q265 -12 208 -12Q127 -12 83.5 30.0Q40 72 40 143Q40 221 96.5 260.0Q153 299 262 299H356V343Q356 391 330.0 417.0Q304 443 249 443Q203 443 174.0 423.0Q145 403 125 372L60 431Q86 475 133.0 503.5Q180 532 256 532Q357 532 411.0 485.0Q465 438 465 350V89H520V0ZM239 71Q290 71 323.0 93.5Q356 116 356 154V229H264Q151 229 151 159V141Q151 106 174.5 88.5Q198 71 239 71Z"/></g><g transform="translate(10462.000,0) scale(1,-1)"><path d="M78 0V520H187V434H192Q209 476 243.5 504.0Q278 532 338 532Q418 532 462.5 479.5Q507 427 507 330V0H398V316Q398 438 300 438Q279 438 258.5 432.5Q238 427 222.0 416.0Q206 405 196.5 388.0Q187 371 187 348V0Z"/></g><g transform="translate(11052.000,0) scale(1,-1)"><path d="M405 86H400Q383 40 344.5 14.0Q306 -12 254 -12Q155 -12 101.0 59.5Q47 131 47 260Q47 389 101.0 460.5Q155 532 254 532Q306 532 344.5 506.5Q383 481 400 434H405V740H514V0H405ZM287 82Q337 82 371.0 106.5Q405 131 405 171V349Q405 389 371.0 413.5Q337 438 287 438Q230 438 196.0 401.5Q162 365 162 305V215Q162 155 196.0 118.5Q230 82 287 82Z"/></g><g transform="translate(11900.000,0) scale(1,-1)"><path d="M86 0V698H386Q483 698 536.0 641.0Q589 584 589 488Q589 392 536.0 335.0Q483 278 386 278H199V0ZM199 377H379Q422 377 446.0 399.5Q470 422 470 464V512Q470 554 446.0 576.5Q422 599 379 599H199Z"/></g><g transform="translate(12537.000,0) scale(1,-1)"><path d="M78 0V520H187V420H192Q203 460 238.0 490.0Q273 520 335 520H364V415H321Q256 415 221.5 394.0Q187 373 187 332V0Z"/></g><g transform="translate(12930.000,0) scale(1,-1)"><path d="M282 -12Q228 -12 183.5 7.0Q139 26 108.0 61.5Q77 97 60.0 147.5Q43 198 43 260Q43 322 60.0 372.5Q77 423 108.0 458.5Q139 494 183.5 513.0Q228 532 282 532Q336 532 380.5 513.0Q425 494 456.0 458.5Q487 423 504.0 372.5Q521 322 521 260Q521 198 504.0 147.5Q487 97 456.0 61.5Q425 26 380.5 7.0Q336 -12 282 -12ZM282 78Q338 78 372.0 112.5Q406 147 406 216V304Q406 373 372.0 407.5Q338 442 282 442Q226 442 192.0 407.5Q158 373 158 304V216Q158 147 192.0 112.5Q226 78 282 78Z"/></g><g transform="translate(13504.000,0) scale(1,-1)"><path d="M78 0V520H187V434H192Q200 454 211.5 472.0Q223 490 239.5 503.5Q256 517 278.5 524.5Q301 532 331 532Q384 532 425.0 506.0Q466 480 485 426H488Q502 470 542.0 501.0Q582 532 645 532Q723 532 766.0 479.5Q809 427 809 330V0H700V317Q700 377 677.0 407.5Q654 438 604 438Q583 438 564.0 432.5Q545 427 530.5 416.0Q516 405 507.0 388.0Q498 371 498 349V0H389V317Q389 438 294 438Q274 438 254.5 432.5Q235 427 220.0 416.0Q205 405 196.0 388.0Q187 371 187 349V0Z"/></g><g transform="translate(14396.000,0) scale(1,-1)"><path d="M78 520H187V434H192Q209 481 247.5 506.5Q286 532 338 532Q437 532 491.0 460.5Q545 389 545 260Q545 131 491.0 59.5Q437 -12 338 -12Q286 -12 247.5 14.0Q209 40 192 86H187V-200H78ZM305 82Q362 82 396.0 118.5Q430 155 430 215V305Q430 365 396.0 401.5Q362 438 305 438Q255 438 221.0 413.5Q187 389 187 349V171Q187 131 221.0 106.5Q255 82 305 82Z"/></g><g transform="translate(14998.000,0) scale(1,-1)"><path d="M222 0Q165 0 136.0 29.5Q107 59 107 113V431H26V520H70Q97 520 107.5 532.0Q118 544 118 571V662H216V520H325V431H216V89H317V0Z"/></g><g transform="translate(15373.000,0) scale(1,-1)"><path d="M145 139Q182 139 200.0 120.0Q218 101 218 71V55Q218 6 191.5 -47.5Q165 -101 120 -138H39Q71 -106 92.0 -76.0Q113 -46 124 -9Q98 -4 85.0 13.5Q72 31 72 55V71Q72 101 90.0 120.0Q108 139 145 139Z"/></g><g transform="translate(15919.000,0) scale(1,-1)"><path d="M56 0V92H151V606H56V698H360V606H264V92H360V0Z"/></g><g transform="translate(16345.000,0) scale(1,-1)"><path d="M78 0V520H187V434H192Q209 476 243.5 504.0Q278 532 338 532Q418 532 462.5 479.5Q507 427 507 330V0H398V316Q398 438 300 438Q279 438 258.5 432.5Q238 427 222.0 416.0Q206 405 196.5 388.0Q187 371 187 348V0Z"/></g><g transform="translate(16935.000,0) scale(1,-1)"><path d="M279 -12Q223 -12 179.0 7.0Q135 26 105.0 61.5Q75 97 59.0 147.5Q43 198 43 260Q43 322 59.0 372.5Q75 423 105.0 458.5Q135 494 179.0 513.0Q223 532 279 532Q357 532 407.0 497.0Q457 462 480 404L390 362Q379 398 351.5 419.5Q324 441 279 441Q219 441 188.5 403.5Q158 366 158 306V213Q158 153 188.5 115.5Q219 78 279 78Q327 78 355.5 101.5Q384 125 401 164L484 120Q458 56 406.0 22.0Q354 -12 279 -12Z"/></g><g transform="translate(17455.000,0) scale(1,-1)"><path d="M145 -12Q108 -12 90.0 7.5Q72 27 72 56V71Q72 100 90.0 119.5Q108 139 145 139Q182 139 200.0 119.5Q218 100 218 71V56Q218 27 200.0 7.5Q182 -12 145 -12Z"/></g></g></svg>