<svg xmlns="http://www.w3.org/2000/svg" width="445" height="96" viewBox="0 0 445 96" role="img" aria-label="open_pg_tde"><g transform="translate(0,10.80) scale(0.62)"><mask id="knock_FFFFFF"><rect x="0" y="0" width="120" height="120" fill="white"/><path d="M 27.00 29.00 A 33.00 11.00 0 0 0 93.00 29.00" fill="none" stroke="black" stroke-width="2.4" stroke-linecap="round"/><path d="M 27.00 46.00 A 33.00 11.00 0 0 0 93.00 46.00" fill="none" stroke="black" stroke-width="2.6" stroke-linecap="round"/><path d="M 50.80 62.50 A 9.20 9.20 0 1 1 69.20 62.50 L 67.20 81.50 L 52.80 81.50 L 50.80 62.50 Z" fill="black"/></mask><g fill="#FFFFFF" mask="url(#knock_FFFFFF)"><path d="M 27.00 29.00 L 27.00 86.00 A 33.00 11.00 0 0 0 93.00 86.00 L 93.00 29.00 A 33.00 11.00 0 0 1 27.00 29.00 Z"/><ellipse cx="60.0" cy="29.0" rx="33.0" ry="11.0"/></g></g><g transform="translate(98.400,65.680) scale(0.052000)" fill="#FFFFFF"><g transform="translate(0.000,0) scale(1,-1)"><path d="M300 -12Q241 -12 194.5 7.0Q148 26 115.5 61.0Q83 96 65.5 146.0Q48 196 48 258Q48 320 65.5 370.0Q83 420 115.5 455.0Q148 490 194.5 509.0Q241 528 300 528Q358 528 405.0 509.0Q452 490 484.5 455.0Q517 420 534.5 370.0Q552 320 552 258Q552 196 534.5 146.0Q517 96 484.5 61.0Q452 26 405.0 7.0Q358 -12 300 -12ZM300 86Q355 86 387.0 119.5Q419 153 419 218V298Q419 363 387.0 396.5Q355 430 300 430Q245 430 213.0 396.5Q181 363 181 298V218Q181 153 213.0 119.5Q245 86 300 86Z"/></g><g transform="translate(595.000,0) scale(1,-1)"><path d="M69 516H197V425H204Q225 472 261.5 500.0Q298 528 358 528Q402 528 438.5 511.5Q475 495 501.0 461.5Q527 428 541.0 377.0Q555 326 555 258Q555 190 541.0 139.0Q527 88 501.0 54.5Q475 21 438.5 4.5Q402 -12 358 -12Q298 -12 261.5 16.0Q225 44 204 91H197V-200H69ZM304 90Q360 90 390.5 124.0Q421 158 421 217V299Q421 358 390.5 392.0Q360 426 304 426Q260 426 228.5 404.5Q197 383 197 339V177Q197 133 228.5 111.5Q260 90 304 90Z"/></g><g transform="translate(1190.000,0) scale(1,-1)"><path d="M312 -12Q250 -12 202.0 7.0Q154 26 121.5 61.0Q89 96 72.0 145.5Q55 195 55 257Q55 320 72.5 370.0Q90 420 122.0 455.0Q154 490 199.5 509.0Q245 528 302 528Q358 528 403.0 509.5Q448 491 479.5 457.0Q511 423 528.0 375.0Q545 327 545 269V227H183V214Q183 158 218.0 123.5Q253 89 316 89Q364 89 398.5 108.5Q433 128 456 160L529 87Q501 46 447.5 17.0Q394 -12 312 -12ZM303 434Q249 434 216.0 400.0Q183 366 183 310V303H417V312Q417 368 386.5 401.0Q356 434 303 434Z"/></g><g transform="translate(1785.000,0) scale(1,-1)"><path d="M75 0V516H203V425H208Q225 467 260.5 497.5Q296 528 359 528Q435 528 482.5 477.5Q530 427 530 333V0H402V315Q402 427 305 427Q285 427 267.0 422.0Q249 417 234.5 406.5Q220 396 211.5 381.0Q203 366 203 345V0Z"/></g><g transform="translate(2380.000,0) scale(1,-1)"><path d="M60 -185V-78H540V-185Z"/></g><g transform="translate(2975.000,0) scale(1,-1)"><path d="M69 516H197V425H204Q225 472 261.5 500.0Q298 528 358 528Q402 528 438.5 511.5Q475 495 501.0 461.5Q527 428 541.0 377.0Q555 326 555 258Q555 190 541.0 139.0Q527 88 501.0 54.5Q475 21 438.5 4.5Q402 -12 358 -12Q298 -12 261.5 16.0Q225 44 204 91H197V-200H69ZM304 90Q360 90 390.5 124.0Q421 158 421 217V299Q421 358 390.5 392.0Q360 426 304 426Q260 426 228.5 404.5Q197 383 197 339V177Q197 133 228.5 111.5Q260 90 304 90Z"/></g><g transform="translate(3570.000,0) scale(1,-1)"><path d="M576 -54Q576 -135 508.5 -173.5Q441 -212 298 -212Q228 -212 181.0 -203.5Q134 -195 105.5 -179.0Q77 -163 65.0 -140.5Q53 -118 53 -90Q53 -47 78.0 -24.0Q103 -1 148 10V18Q118 28 100.5 46.0Q83 64 83 96Q83 134 108.5 153.0Q134 172 176 182V187Q130 209 104.0 249.0Q78 289 78 346Q78 389 93.5 422.5Q109 456 137.5 479.5Q166 503 206.0 515.5Q246 528 295 528Q347 528 389 514V536Q389 566 408.5 586.0Q428 606 463 606H556V510H434V493Q472 470 492.5 433.5Q513 397 513 346Q513 303 497.5 269.0Q482 235 453.5 212.0Q425 189 384.5 176.5Q344 164 295 164Q275 164 256.5 165.5Q238 167 221 172Q207 167 194.0 156.0Q181 145 181 127Q181 103 204.0 97.5Q227 92 259 92H376Q430 92 468.0 81.5Q506 71 530.0 51.5Q554 32 565.0 5.0Q576 -22 576 -54ZM456 -63Q456 -40 437.5 -26.5Q419 -13 369 -13H191Q161 -30 161 -63Q161 -90 183.5 -108.0Q206 -126 260 -126H343Q456 -126 456 -63ZM295 248Q344 248 367.0 271.5Q390 295 390 333V359Q390 397 367.0 420.5Q344 444 295 444Q247 444 224.0 420.5Q201 397 201 359V333Q201 295 224.0 271.5Q247 248 295 248Z"/></g><g transform="translate(4165.000,0) scale(1,-1)"><path d="M60 -185V-78H540V-185Z"/></g><g transform="translate(4760.000,0) scale(1,-1)"><path d="M335 0Q261 0 226.0 39.0Q191 78 191 140V415H41V516H143Q174 516 187.0 528.5Q200 541 200 573V698H319V516H529V415H319V101H529V0Z"/></g><g transform="translate(5355.000,0) scale(1,-1)"><path d="M403 91H396Q375 44 338.5 16.0Q302 -12 242 -12Q198 -12 161.5 4.5Q125 21 99.0 54.5Q73 88 59.0 139.0Q45 190 45 258Q45 394 99.0 461.0Q153 528 242 528Q302 528 338.5 500.0Q375 472 396 425H403V740H531V0H403ZM296 90Q318 90 337.5 95.5Q357 101 371.5 111.5Q386 122 394.5 138.5Q403 155 403 177V339Q403 361 394.5 377.5Q386 394 371.5 404.5Q357 415 337.5 420.5Q318 426 296 426Q240 426 209.5 392.0Q179 358 179 299V217Q179 158 209.5 124.0Q240 90 296 90Z"/></g><g transform="translate(5950.000,0) scale(1,-1)"><path d="M312 -12Q250 -12 202.0 7.0Q154 26 121.5 61.0Q89 96 72.0 145.5Q55 195 55 257Q55 320 72.5 370.0Q90 420 122.0 455.0Q154 490 199.5 509.0Q245 528 302 528Q358 528 403.0 509.5Q448 491 479.5 457.0Q511 423 528.0 375.0Q545 327 545 269V227H183V214Q183 158 218.0 123.5Q253 89 316 89Q364 89 398.5 108.5Q433 128 456 160L529 87Q501 46 447.5 17.0Q394 -12 312 -12ZM303 434Q249 434 216.0 400.0Q183 366 183 310V303H417V312Q417 368 386.5 401.0Q356 434 303 434Z"/></g></g><rect x="98.40" y="74.68" width="340.34" height="3" rx="1.5" fill="#FFFFFF" opacity="0.9"/></svg>