<svg xmlns="http://www.w3.org/2000/svg" width="120" height="120" viewBox="0 0 120 120" role="img" aria-label="open_pg_tde"><rect x="0" y="0" width="120" height="120" fill="#2F6D9E"/><mask id="knock_FFFFFF"><rect x="0" y="0" width="120" height="120" fill="white"/><path d="M 27.00 29.00 A 33.00 11.00 0 0 0 93.00 29.00" fill="none" stroke="black" stroke-width="2.4" stroke-linecap="round"/><path d="M 27.00 46.00 A 33.00 11.00 0 0 0 93.00 46.00" fill="none" stroke="black" stroke-width="2.6" stroke-linecap="round"/><path d="M 50.80 62.50 A 9.20 9.20 0 1 1 69.20 62.50 L 67.20 81.50 L 52.80 81.50 L 50.80 62.50 Z" fill="black"/></mask><g fill="#FFFFFF" mask="url(#knock_FFFFFF)"><path d="M 27.00 29.00 L 27.00 86.00 A 33.00 11.00 0 0 0 93.00 86.00 L 93.00 29.00 A 33.00 11.00 0 0 1 27.00 29.00 Z"/><ellipse cx="60.0" cy="29.0" rx="33.0" ry="11.0"/></g></svg>